<svg width="181" height="48" viewBox="0 0 181 48" fill="none" xmlns="http://www.w3.org/2000/svg">
<path d="M2.69766 45.485H8.98509V24.1078H25.6318V45.485H31.9192V2.91017H25.6318V18.6587H8.98509V2.91017H2.69766V45.485ZM45.3268 17.3413H39.5783V32.8503C39.5783 41.7724 43.6501 46.2036 52.0335 46.2036C56.5844 46.2036 59.8778 44.8862 62.273 41.7724C64.3689 39.0778 64.4886 36.3233 64.4886 32.8503V17.3413H58.7401V32.7305C58.7401 37.8802 56.3449 40.5748 51.9736 40.5748C47.6621 40.5748 45.3268 37.8802 45.3268 32.7305V17.3413ZM86.1186 22.2515C91.2683 22.2515 95.1605 26.0838 95.1605 31.4132C95.1605 36.8024 91.5078 40.5149 86.1186 40.5149C80.8491 40.5149 77.1365 36.8623 77.1365 31.7126C77.1365 26.1437 80.9689 22.2515 86.1186 22.2515ZM77.0168 20.4551V2.79041H71.3281V26.5629C71.3281 32.4311 71.9269 36.8024 73.8431 40.0958C76.0587 43.8682 80.5497 46.2036 86.1186 46.2036C90.0707 46.2036 93.8431 44.7066 96.6575 41.8922C99.4718 39.0778 100.969 35.3054 100.969 31.3533C100.969 27.4012 99.4718 23.6886 96.6575 20.8742C93.903 18.1197 90.6096 16.8024 86.7174 16.8024C83.0048 16.8024 79.8311 17.9401 77.0168 20.4551ZM106.431 45.485H112.12V32.4311C119.186 32.5509 122.778 36.4431 122.778 44.1676C122.778 44.5868 122.719 45.006 122.719 45.485H128.467C128.467 45.1257 128.467 44.8263 128.467 44.4671C128.467 35.9641 125.473 30.8144 119.365 28.8383L128.467 17.3413H121.521L112.12 29.3772V2.79041H106.431V45.485ZM139.299 17.3413H133.55V32.8503C133.55 41.7724 137.622 46.2036 146.005 46.2036C150.556 46.2036 153.85 44.8862 156.245 41.7724C158.341 39.0778 158.46 36.3233 158.46 32.8503V17.3413H152.712V32.7305C152.712 37.8802 150.317 40.5748 145.945 40.5748C141.634 40.5748 139.299 37.8802 139.299 32.7305V17.3413ZM163.804 22.3114H166.678V32.8503C166.678 40.8742 171.049 45.3653 179.013 45.485V39.7365C174.103 39.2575 172.307 36.6826 172.307 31.1736V22.3114H178.654V17.3413H172.307V10.6946H166.678V17.3413H163.804V22.3114Z" fill="#ED2590"/>
<path d="M2.69767 45.485H0.90126V47.2814H2.69767V45.485ZM8.98509 45.485V47.2814H10.7815V45.485H8.98509ZM8.98509 24.1078V22.3114H7.18868V24.1078H8.98509ZM25.6318 24.1078H27.4282V22.3114H25.6318V24.1078ZM25.6318 45.485H23.8354V47.2814H25.6318V45.485ZM31.9192 45.485V47.2814H33.7156V45.485H31.9192ZM31.9192 2.91019H33.7156V1.11378H31.9192V2.91019ZM25.6318 2.91019V1.11378H23.8354V2.91019H25.6318ZM25.6318 18.6587V20.4551H27.4282V18.6587H25.6318ZM8.98509 18.6587H7.18868V20.4551H8.98509V18.6587ZM8.98509 2.91019H10.7815V1.11378H8.98509V2.91019ZM2.69767 2.91019V1.11378H0.90126V2.91019H2.69767ZM2.69767 47.2814H8.98509V43.6886H2.69767V47.2814ZM10.7815 45.485V24.1078H7.18868V45.485H10.7815ZM8.98509 25.9042H25.6318V22.3114H8.98509V25.9042ZM23.8354 24.1078V45.485H27.4282V24.1078H23.8354ZM25.6318 47.2814H31.9192V43.6886H25.6318V47.2814ZM33.7156 45.485V2.91019H30.1228V45.485H33.7156ZM31.9192 1.11378H25.6318V4.70659H31.9192V1.11378ZM23.8354 2.91019V18.6587H27.4282V2.91019H23.8354ZM25.6318 16.8623H8.98509V20.4551H25.6318V16.8623ZM10.7815 18.6587V2.91019H7.18868V18.6587H10.7815ZM8.98509 1.11378H2.69767V4.70659H8.98509V1.11378ZM0.90126 2.91019V45.485H4.49407V2.91019H0.90126ZM45.3268 17.3413H47.1232V15.5449H45.3268V17.3413ZM39.5783 17.3413V15.5449H37.7819V17.3413H39.5783ZM62.273 41.7725L60.8551 40.6696L60.8521 40.6734L60.8491 40.6772L62.273 41.7725ZM64.4886 17.3413H66.285V15.5449H64.4886V17.3413ZM58.7401 17.3413V15.5449H56.9437V17.3413H58.7401ZM45.3268 15.5449H39.5783V19.1377H45.3268V15.5449ZM37.7819 17.3413V32.8503H41.3747V17.3413H37.7819ZM37.7819 32.8503C37.7819 37.5492 38.8506 41.4102 41.3462 44.0956C43.8655 46.8067 47.5382 48 52.0335 48V44.4072C48.1453 44.4072 45.5904 43.385 43.978 41.6499C42.3419 39.8892 41.3747 37.0736 41.3747 32.8503H37.7819ZM52.0335 48C56.9844 48 60.876 46.535 63.697 42.8677L60.8491 40.6772C58.8796 43.2374 56.1838 44.4072 52.0335 44.4072V48ZM63.691 42.8753C66.1982 39.6516 66.285 36.3214 66.285 32.8503H62.6922C62.6922 36.3253 62.5389 38.5041 60.8551 40.6696L63.691 42.8753ZM66.285 32.8503V17.3413H62.6922V32.8503H66.285ZM64.4886 15.5449H58.7401V19.1377H64.4886V15.5449ZM56.9437 17.3413V32.7305H60.5365V17.3413H56.9437ZM56.9437 32.7305C56.9437 35.0574 56.3994 36.5316 55.6401 37.4053C54.9174 38.2367 53.7772 38.7785 51.9737 38.7785V42.3713C54.5407 42.3713 56.7838 41.5657 58.3515 39.7624C59.8826 38.0013 60.5365 35.5534 60.5365 32.7305H56.9437ZM51.9737 38.7785C50.2084 38.7785 49.1029 38.2426 48.4006 37.4186C47.6566 36.5458 47.1232 35.0671 47.1232 32.7305H43.5304C43.5304 35.5437 44.1646 37.9872 45.6661 39.7491C47.2093 41.5598 49.4273 42.3713 51.9737 42.3713V38.7785ZM47.1232 32.7305V17.3413H43.5304V32.7305H47.1232ZM77.0168 20.4551H75.2204V24.4696L78.2138 21.7946L77.0168 20.4551ZM77.0168 2.79043H78.8132V0.994019H77.0168V2.79043ZM71.3281 2.79043V0.994019H69.5317V2.79043H71.3281ZM73.8431 40.0958L72.2904 40.9992L72.2946 41.0056L73.8431 40.0958ZM86.1186 24.0479C90.2683 24.0479 93.3641 27.0681 93.3641 31.4132H96.9569C96.9569 25.0995 92.2683 20.4551 86.1186 20.4551V24.0479ZM93.3641 31.4132C93.3641 33.6932 92.5988 35.495 91.3844 36.7208C90.1718 37.9448 88.3892 38.7186 86.1186 38.7186V42.3114C89.2377 42.3114 91.976 41.2289 93.9371 39.2493C95.8964 37.2714 96.9569 34.5224 96.9569 31.4132H93.3641ZM86.1186 38.7186C83.9084 38.7186 82.1293 37.9589 80.9096 36.7626C79.6928 35.5685 78.9329 33.8419 78.9329 31.7126H75.3401C75.3401 34.733 76.4371 37.4076 78.3934 39.3272C80.3479 41.2447 83.0599 42.3114 86.1186 42.3114V38.7186ZM78.9329 31.7126C78.9329 27.0654 82.0299 24.0479 86.1186 24.0479V20.4551C79.9078 20.4551 75.3401 25.222 75.3401 31.7126H78.9329ZM78.8132 20.4551V2.79043H75.2204V20.4551H78.8132ZM77.0168 0.994019H71.3281V4.58683H77.0168V0.994019ZM69.5317 2.79043V26.5629H73.1245V2.79043H69.5317ZM69.5317 26.5629C69.5317 32.4841 70.1204 37.2691 72.2904 40.9992L75.3958 39.1924C73.7341 36.3357 73.1245 32.3782 73.1245 26.5629H69.5317ZM72.2946 41.0056C74.9036 45.4484 80.0671 48 86.1186 48V44.4072C81.0329 44.4072 77.2144 42.2881 75.3922 39.1861L72.2946 41.0056ZM86.1186 48C90.5287 48 94.7635 46.3267 97.9281 43.1625L95.3874 40.622C92.9228 43.0865 89.6132 44.4072 86.1186 44.4072V48ZM97.9281 43.1625C101.092 39.9982 102.765 35.7631 102.765 31.3533H99.1724C99.1724 34.8477 97.8521 38.1575 95.3874 40.622L97.9281 43.1625ZM102.765 31.3533C102.765 26.9358 101.087 22.7629 97.9281 19.604L95.3874 22.1445C97.8575 24.6143 99.1724 27.8667 99.1724 31.3533H102.765ZM97.9281 19.604C94.8258 16.5017 91.0707 15.006 86.7174 15.006V18.5988C90.1491 18.5988 92.9808 19.7378 95.3874 22.1445L97.9281 19.604ZM86.7174 15.006C82.585 15.006 78.9796 16.2922 75.8198 19.1156L78.2138 21.7946C80.6832 19.5881 83.4246 18.5988 86.7174 18.5988V15.006ZM106.431 45.485H104.635V47.2814H106.431V45.485ZM112.12 45.485V47.2814H113.916V45.485H112.12ZM112.12 32.4311L112.15 30.635L110.323 30.604V32.4311H112.12ZM122.719 45.485H120.922V47.2814H122.719V45.485ZM128.467 45.485V47.2814H130.263V45.485H128.467ZM119.365 28.8383L117.957 27.7233L116.351 29.7513L118.813 30.5475L119.365 28.8383ZM128.467 17.3413L129.875 18.4564L132.181 15.5449H128.467V17.3413ZM121.521 17.3413V15.5449H120.645L120.105 16.2355L121.521 17.3413ZM112.12 29.3773H110.323V34.5954L113.535 30.4831L112.12 29.3773ZM112.12 2.79043H113.916V0.994019H112.12V2.79043ZM106.431 2.79043V0.994019H104.635V2.79043H106.431ZM106.431 47.2814H112.12V43.6886H106.431V47.2814ZM113.916 45.485V32.4311H110.323V45.485H113.916ZM112.089 34.2273C115.304 34.2818 117.426 35.1826 118.771 36.658C120.14 38.1583 120.982 40.5541 120.982 44.1677H124.575C124.575 40.0567 123.621 36.6441 121.426 34.2372C119.209 31.8055 116.001 30.7002 112.15 30.635L112.089 34.2273ZM120.982 44.1677C120.982 44.3035 120.972 44.4479 120.956 44.6803C120.942 44.8944 120.922 45.176 120.922 45.485H124.515C124.515 45.315 124.526 45.1475 124.541 44.9275C124.554 44.7258 124.575 44.451 124.575 44.1677H120.982ZM122.719 47.2814H128.467V43.6886H122.719V47.2814ZM130.263 45.485C130.263 45.4843 130.263 45.4837 130.263 45.4829C130.263 45.4822 130.263 45.4815 130.263 45.4808C130.263 45.4801 130.263 45.4794 130.263 45.4788C130.263 45.478 130.263 45.4773 130.263 45.4767C130.263 45.4759 130.263 45.4752 130.263 45.4746C130.263 45.4738 130.263 45.4731 130.263 45.4724C130.263 45.4717 130.263 45.471 130.263 45.4703C130.263 45.4697 130.263 45.4689 130.263 45.4682C130.263 45.4675 130.263 45.4668 130.263 45.4662C130.263 45.4655 130.263 45.4647 130.263 45.4641C130.263 45.4634 130.263 45.4626 130.263 45.462C130.263 45.4613 130.263 45.4605 130.263 45.4599C130.263 45.4592 130.263 45.4584 130.263 45.4578C130.263 45.4571 130.263 45.4564 130.263 45.4557C130.263 45.455 130.263 45.4543 130.263 45.4536C130.263 45.4529 130.263 45.4522 130.263 45.4515C130.263 45.4508 130.263 45.4501 130.263 45.4495C130.263 45.4487 130.263 45.448 130.263 45.4474C130.263 45.4467 130.263 45.446 130.263 45.4453C130.263 45.4446 130.263 45.4439 130.263 45.4432C130.263 45.4425 130.263 45.4418 130.263 45.4411C130.263 45.4404 130.263 45.4398 130.263 45.4391C130.263 45.4383 130.263 45.4377 130.263 45.437C130.263 45.4363 130.263 45.4356 130.263 45.4349C130.263 45.4342 130.263 45.4335 130.263 45.4328C130.263 45.4321 130.263 45.4314 130.263 45.4307C130.263 45.4301 130.263 45.4293 130.263 45.4287C130.263 45.428 130.263 45.4273 130.263 45.4266C130.263 45.4259 130.263 45.4252 130.263 45.4246C130.263 45.4238 130.263 45.4232 130.263 45.4225C130.263 45.4218 130.263 45.4211 130.263 45.4204C130.263 45.4197 130.263 45.419 130.263 45.4183C130.263 45.4177 130.263 45.4169 130.263 45.4163C130.263 45.4156 130.263 45.4149 130.263 45.4142C130.263 45.4135 130.263 45.4128 130.263 45.4122C130.263 45.4114 130.263 45.4108 130.263 45.4101C130.263 45.4094 130.263 45.4088 130.263 45.408C130.263 45.4074 130.263 45.4067 130.263 45.406C130.263 45.4053 130.263 45.4046 130.263 45.4039C130.263 45.4032 130.263 45.4026 130.263 45.4019C130.263 45.4012 130.263 45.4005 130.263 45.3998C130.263 45.3991 130.263 45.3984 130.263 45.3978C130.263 45.3971 130.263 45.3964 130.263 45.3957C130.263 45.395 130.263 45.3943 130.263 45.3937C130.263 45.393 130.263 45.3923 130.263 45.3916C130.263 45.3909 130.263 45.3902 130.263 45.3896C130.263 45.3889 130.263 45.3882 130.263 45.3875C130.263 45.3868 130.263 45.3862 130.263 45.3855C130.263 45.3848 130.263 45.3841 130.263 45.3834C130.263 45.3828 130.263 45.382 130.263 45.3814C130.263 45.3807 130.263 45.38 130.263 45.3793C130.263 45.3786 130.263 45.378 130.263 45.3773C130.263 45.3766 130.263 45.3759 130.263 45.3753C130.263 45.3746 130.263 45.3739 130.263 45.3732C130.263 45.3725 130.263 45.3719 130.263 45.3712C130.263 45.3705 130.263 45.3698 130.263 45.3692C130.263 45.3685 130.263 45.3678 130.263 45.3671C130.263 45.3664 130.263 45.3658 130.263 45.3651C130.263 45.3644 130.263 45.3637 130.263 45.3631C130.263 45.3623 130.263 45.3617 130.263 45.361C130.263 45.3603 130.263 45.3596 130.263 45.359C130.263 45.3583 130.263 45.3576 130.263 45.357C130.263 45.3562 130.263 45.3556 130.263 45.3549C130.263 45.3543 130.263 45.3535 130.263 45.3529C130.263 45.3522 130.263 45.3515 130.263 45.3508C130.263 45.3502 130.263 45.3495 130.263 45.3488C130.263 45.3481 130.263 45.3475 130.263 45.3468C130.263 45.3461 130.263 45.3455 130.263 45.3448C130.263 45.3441 130.263 45.3434 130.263 45.3428C130.263 45.3421 130.263 45.3414 130.263 45.3407C130.263 45.3401 130.263 45.3394 130.263 45.3387C130.263 45.338 130.263 45.3374 130.263 45.3367C130.263 45.336 130.263 45.3353 130.263 45.3347C130.263 45.334 130.263 45.3333 130.263 45.3326C130.263 45.332 130.263 45.3313 130.263 45.3306C130.263 45.3299 130.263 45.3293 130.263 45.3286C130.263 45.3279 130.263 45.3273 130.263 45.3266C130.263 45.3259 130.263 45.3253 130.263 45.3246C130.263 45.3239 130.263 45.3232 130.263 45.3226C130.263 45.3219 130.263 45.3212 130.263 45.3205C130.263 45.3199 130.263 45.3192 130.263 45.3186C130.263 45.3179 130.263 45.3172 130.263 45.3165C130.263 45.3159 130.263 45.3152 130.263 45.3145C130.263 45.3138 130.263 45.3132 130.263 45.3125C130.263 45.3119 130.263 45.3111 130.263 45.3105C130.263 45.3098 130.263 45.3092 130.263 45.3085C130.263 45.3079 130.263 45.3071 130.263 45.3065C130.263 45.3058 130.263 45.3052 130.263 45.3045C130.263 45.3038 130.263 45.3031 130.263 45.3025C130.263 45.3018 130.263 45.3011 130.263 45.3005C130.263 45.2998 130.263 45.2991 130.263 45.2985C130.263 45.2978 130.263 45.2971 130.263 45.2965C130.263 45.2958 130.263 45.2952 130.263 45.2944C130.263 45.2938 130.263 45.2931 130.263 45.2925C130.263 45.2918 130.263 45.2911 130.263 45.2905C130.263 45.2898 130.263 45.2891 130.263 45.2884C130.263 45.2878 130.263 45.2871 130.263 45.2865C130.263 45.2858 130.263 45.2852 130.263 45.2845C130.263 45.2838 130.263 45.2831 130.263 45.2825C130.263 45.2818 130.263 45.2811 130.263 45.2805C130.263 45.2798 130.263 45.2792 130.263 45.2785C130.263 45.2778 130.263 45.2771 130.263 45.2765C130.263 45.2758 130.263 45.2752 130.263 45.2745C130.263 45.2738 130.263 45.2732 130.263 45.2725C130.263 45.2719 130.263 45.2712 130.263 45.2705C130.263 45.2698 130.263 45.2692 130.263 45.2685C130.263 45.2679 130.263 45.2672 130.263 45.2665C130.263 45.2659 130.263 45.2652 130.263 45.2646C130.263 45.2639 130.263 45.2632 130.263 45.2626C130.263 45.2619 130.263 45.2613 130.263 45.2605C130.263 45.2599 130.263 45.2592 130.263 45.2586C130.263 45.2579 130.263 45.2573 130.263 45.2566C130.263 45.2559 130.263 45.2553 130.263 45.2546C130.263 45.254 130.263 45.2533 130.263 45.2526C130.263 45.252 130.263 45.2513 130.263 45.2507C130.263 45.25 130.263 45.2494 130.263 45.2487C130.263 45.248 130.263 45.2474 130.263 45.2467C130.263 45.246 130.263 45.2453 130.263 45.2447C130.263 45.244 130.263 45.2434 130.263 45.2427C130.263 45.242 130.263 45.2414 130.263 45.2407C130.263 45.2401 130.263 45.2394 130.263 45.2388C130.263 45.2381 130.263 45.2374 130.263 45.2368C130.263 45.2361 130.263 45.2355 130.263 45.2348C130.263 45.2341 130.263 45.2335 130.263 45.2328C130.263 45.2322 130.263 45.2315 130.263 45.2308C130.263 45.2302 130.263 45.2295 130.263 45.2289C130.263 45.2282 130.263 45.2275 130.263 45.2269C130.263 45.2262 130.263 45.2256 130.263 45.2249C130.263 45.2243 130.263 45.2236 130.263 45.2229C130.263 45.2223 130.263 45.2216 130.263 45.221C130.263 45.2203 130.263 45.2196 130.263 45.219C130.263 45.2183 130.263 45.2177 130.263 45.2171C130.263 45.2164 130.263 45.2158 130.263 45.2151C130.263 45.2144 130.263 45.2138 130.263 45.2131C130.263 45.2125 130.263 45.2118 130.263 45.2111C130.263 45.2105 130.263 45.2098 130.263 45.2092C130.263 45.2085 130.263 45.2079 130.263 45.2072C130.263 45.2065 130.263 45.2059 130.263 45.2052C130.263 45.2046 130.263 45.2039 130.263 45.2032C130.263 45.2026 130.263 45.2019 130.263 45.2013C130.263 45.2007 130.263 45.2 130.263 45.1994C130.263 45.1987 130.263 45.198 130.263 45.1974C130.263 45.1967 130.263 45.1961 130.263 45.1954C130.263 45.1947 130.263 45.1941 130.263 45.1934C130.263 45.1928 130.263 45.1921 130.263 45.1915C130.263 45.1908 130.263 45.1902 130.263 45.1895C130.263 45.1889 130.263 45.1882 130.263 45.1875C130.263 45.1869 130.263 45.1862 130.263 45.1856C130.263 45.1849 130.263 45.1843 130.263 45.1836C130.263 45.183 130.263 45.1823 130.263 45.1817C130.263 45.181 130.263 45.1804 130.263 45.1797C130.263 45.179 130.263 45.1784 130.263 45.1777C130.263 45.1771 130.263 45.1765 130.263 45.1758C130.263 45.1752 130.263 45.1745 130.263 45.1738C130.263 45.1732 130.263 45.1725 130.263 45.1719C130.263 45.1712 130.263 45.1705 130.263 45.1699C130.263 45.1693 130.263 45.1686 130.263 45.168C130.263 45.1673 130.263 45.1667 130.263 45.166C130.263 45.1653 130.263 45.1647 130.263 45.1641C130.263 45.1634 130.263 45.1628 130.263 45.1621C130.263 45.1614 130.263 45.1608 130.263 45.1601C130.263 45.1595 130.263 45.1589 130.263 45.1582C130.263 45.1575 130.263 45.1569 130.263 45.1562C130.263 45.1556 130.263 45.1549 130.263 45.1543C130.263 45.1537 130.263 45.153 130.263 45.1523C130.263 45.1517 130.263 45.151 130.263 45.1504C130.263 45.1497 130.263 45.1491 130.263 45.1484C130.263 45.1478 130.263 45.1471 130.263 45.1465C130.263 45.1458 130.263 45.1452 130.263 45.1446C130.263 45.1439 130.263 45.1432 130.263 45.1426C130.263 45.1419 130.263 45.1413 130.263 45.1406C130.263 45.14 130.263 45.1393 130.263 45.1387C130.263 45.138 130.263 45.1374 130.263 45.1367C130.263 45.136 130.263 45.1355 130.263 45.1348C130.263 45.1341 130.263 45.1335 130.263 45.1328C130.263 45.1322 130.263 45.1316 130.263 45.1309C130.263 45.1302 130.263 45.1296 130.263 45.1289C130.263 45.1283 130.263 45.1277 130.263 45.127C130.263 45.1264 130.263 45.1257 130.263 45.125C130.263 45.1244 130.263 45.1238 130.263 45.1231C130.263 45.1225 130.263 45.1218 130.263 45.1211C130.263 45.1205 130.263 45.1199 130.263 45.1192C130.263 45.1186 130.263 45.1179 130.263 45.1173C130.263 45.1167 130.263 45.116 130.263 45.1153C130.263 45.1147 130.263 45.114 130.263 45.1134C130.263 45.1128 130.263 45.1121 130.263 45.1114C130.263 45.1108 130.263 45.1101 130.263 45.1095C130.263 45.1089 130.263 45.1082 130.263 45.1076C130.263 45.1069 130.263 45.1062 130.263 45.1056C130.263 45.105 130.263 45.1043 130.263 45.1037C130.263 45.103 130.263 45.1024 130.263 45.1017C130.263 45.1011 130.263 45.1004 130.263 45.0998C130.263 45.0992 130.263 45.0985 130.263 45.0978C130.263 45.0972 130.263 45.0965 130.263 45.0959C130.263 45.0953 130.263 45.0946 130.263 45.094C130.263 45.0933 130.263 45.0927 130.263 45.092C130.263 45.0914 130.263 45.0907 130.263 45.0901C130.263 45.0895 130.263 45.0888 130.263 45.0881C130.263 45.0875 130.263 45.0868 130.263 45.0862C130.263 45.0856 130.263 45.0849 130.263 45.0843C130.263 45.0837 130.263 45.083 130.263 45.0823C130.263 45.0817 130.263 45.081 130.263 45.0804C130.263 45.0798 130.263 45.0791 130.263 45.0784C130.263 45.0778 130.263 45.0772 130.263 45.0765C130.263 45.0759 130.263 45.0752 130.263 45.0746C130.263 45.074 130.263 45.0733 130.263 45.0726C130.263 45.072 130.263 45.0714 130.263 45.0707C130.263 45.0701 130.263 45.0694 130.263 45.0688C130.263 45.0682 130.263 45.0675 130.263 45.0668C130.263 45.0662 130.263 45.0656 130.263 45.0649C130.263 45.0643 130.263 45.0636 130.263 45.063C130.263 45.0623 130.263 45.0617 130.263 45.061C130.263 45.0604 130.263 45.0598 130.263 45.0591C130.263 45.0585 130.263 45.0578 130.263 45.0572C130.263 45.0565 130.263 45.0559 130.263 45.0552C130.263 45.0546 130.263 45.054 130.263 45.0533C130.263 45.0526 130.263 45.052 130.263 45.0514C130.263 45.0507 130.263 45.0501 130.263 45.0494C130.263 45.0488 130.263 45.0482 130.263 45.0475C130.263 45.0468 130.263 45.0462 130.263 45.0456C130.263 45.0449 130.263 45.0443 130.263 45.0437C130.263 45.043 130.263 45.0423 130.263 45.0417C130.263 45.0411 130.263 45.0404 130.263 45.0398C130.263 45.0391 130.263 45.0384 130.263 45.0378C130.263 45.0372 130.263 45.0365 130.263 45.0359C130.263 45.0353 130.263 45.0346 130.263 45.034C130.263 45.0333 130.263 45.0327 130.263 45.032C130.263 45.0314 130.263 45.0307 130.263 45.0301C130.263 45.0295 130.263 45.0288 130.263 45.0282C130.263 45.0276 130.263 45.0269 130.263 45.0262C130.263 45.0256 130.263 45.025 130.263 45.0243C130.263 45.0237 130.263 45.023 130.263 45.0224C130.263 45.0217 130.263 45.0211 130.263 45.0204C130.263 45.0198 130.263 45.0192 130.263 45.0185C130.263 45.0179 130.263 45.0173 130.263 45.0166C130.263 45.0159 130.263 45.0153 130.263 45.0147C130.263 45.014 130.263 45.0134 130.263 45.0127C130.263 45.0121 130.263 45.0114 130.263 45.0108C130.263 45.0101 130.263 45.0095 130.263 45.0089C130.263 45.0082 130.263 45.0076 130.263 45.007C130.263 45.0063 130.263 45.0056 130.263 45.005C130.263 45.0044 130.263 45.0037 130.263 45.0031C130.263 45.0024 130.263 45.0018 130.263 45.0011C130.263 45.0005 130.263 44.9998 130.263 44.9992C130.263 44.9986 130.263 44.9979 130.263 44.9973C130.263 44.9967 130.263 44.996 130.263 44.9953C130.263 44.9947 130.263 44.9941 130.263 44.9934C130.263 44.9928 130.263 44.9922 130.263 44.9915C130.263 44.9908 130.263 44.9902 130.263 44.9896C130.263 44.9889 130.263 44.9883 130.263 44.9876C130.263 44.987 130.263 44.9863 130.263 44.9857C130.263 44.985 130.263 44.9844 130.263 44.9838C130.263 44.9831 130.263 44.9825 130.263 44.9819C130.263 44.9812 130.263 44.9805 130.263 44.9799C130.263 44.9793 130.263 44.9786 130.263 44.978C130.263 44.9773 130.263 44.9767 130.263 44.9761C130.263 44.9754 130.263 44.9748 130.263 44.9741C130.263 44.9735 130.263 44.9728 130.263 44.9722C130.263 44.9716 130.263 44.9709 130.263 44.9702C130.263 44.9696 130.263 44.969 130.263 44.9683C130.263 44.9677 130.263 44.9671 130.263 44.9664C130.263 44.9658 130.263 44.9651 130.263 44.9645C130.263 44.9638 130.263 44.9632 130.263 44.9625C130.263 44.9619 130.263 44.9613 130.263 44.9606C130.263 44.9599 130.263 44.9593 130.263 44.9587C130.263 44.958 130.263 44.9574 130.263 44.9568C130.263 44.9561 130.263 44.9555 130.263 44.9548C130.263 44.9542 130.263 44.9535 130.263 44.9529C130.263 44.9523 130.263 44.9516 130.263 44.951C130.263 44.9503 130.263 44.9497 130.263 44.949C130.263 44.9484 130.263 44.9477 130.263 44.9471C130.263 44.9465 130.263 44.9458 130.263 44.9452C130.263 44.9446 130.263 44.9439 130.263 44.9432C130.263 44.9426 130.263 44.942 130.263 44.9413C130.263 44.9407 130.263 44.94 130.263 44.9394C130.263 44.9387 130.263 44.9381 130.263 44.9374C130.263 44.9368 130.263 44.9362 130.263 44.9355C130.263 44.9349 130.263 44.9343 130.263 44.9336C130.263 44.9329 130.263 44.9323 130.263 44.9317C130.263 44.931 130.263 44.9304 130.263 44.9297C130.263 44.9291 130.263 44.9285 130.263 44.9278C130.263 44.9271 130.263 44.9265 130.263 44.9259C130.263 44.9252 130.263 44.9246 130.263 44.924C130.263 44.9233 130.263 44.9226 130.263 44.922C130.263 44.9214 130.263 44.9207 130.263 44.9201C130.263 44.9194 130.263 44.9188 130.263 44.9182C130.263 44.9175 130.263 44.9168 130.263 44.9162C130.263 44.9156 130.263 44.9149 130.263 44.9143C130.263 44.9137 130.263 44.913 130.263 44.9123C130.263 44.9117 130.263 44.911 130.263 44.9104C130.263 44.9098 130.263 44.9091 130.263 44.9084C130.263 44.9078 130.263 44.9072 130.263 44.9065C130.263 44.9059 130.263 44.9053 130.263 44.9046C130.263 44.904 130.263 44.9033 130.263 44.9027C130.263 44.902 130.263 44.9014 130.263 44.9007C130.263 44.9001 130.263 44.8995 130.263 44.8988C130.263 44.8981 130.263 44.8975 130.263 44.8969C130.263 44.8962 130.263 44.8956 130.263 44.8949C130.263 44.8943 130.263 44.8937 130.263 44.893C130.263 44.8923 130.263 44.8917 130.263 44.8911C130.263 44.8904 130.263 44.8898 130.263 44.8891C130.263 44.8885 130.263 44.8879 130.263 44.8872C130.263 44.8865 130.263 44.8859 130.263 44.8853C130.263 44.8846 130.263 44.884 130.263 44.8833C130.263 44.8827 130.263 44.882 130.263 44.8814C130.263 44.8807 130.263 44.8801 130.263 44.8795C130.263 44.8788 130.263 44.8781 130.263 44.8775C130.263 44.8769 130.263 44.8762 130.263 44.8756C130.263 44.8749 130.263 44.8743 130.263 44.8737C130.263 44.873 130.263 44.8723 130.263 44.8717C130.263 44.8711 130.263 44.8704 130.263 44.8698C130.263 44.8691 130.263 44.8685 130.263 44.8679C130.263 44.8672 130.263 44.8665 130.263 44.8659C130.263 44.8653 130.263 44.8646 130.263 44.864C130.263 44.8633 130.263 44.8626 130.263 44.862C130.263 44.8614 130.263 44.8607 130.263 44.8601C130.263 44.8594 130.263 44.8588 130.263 44.8581C130.263 44.8575 130.263 44.8568 130.263 44.8562C130.263 44.8556 130.263 44.8549 130.263 44.8543C130.263 44.8536 130.263 44.8529 130.263 44.8523C130.263 44.8517 130.263 44.851 130.263 44.8504C130.263 44.8497 130.263 44.8491 130.263 44.8484C130.263 44.8478 130.263 44.8471 130.263 44.8465C130.263 44.8459 130.263 44.8452 130.263 44.8446C130.263 44.8439 130.263 44.8432 130.263 44.8426C130.263 44.842 130.263 44.8413 130.263 44.8407C130.263 44.84 130.263 44.8393 130.263 44.8387C130.263 44.8381 130.263 44.8374 130.263 44.8368C130.263 44.8361 130.263 44.8355 130.263 44.8349C130.263 44.8342 130.263 44.8335 130.263 44.8329C130.263 44.8322 130.263 44.8316 130.263 44.831C130.263 44.8303 130.263 44.8296 130.263 44.829C130.263 44.8283 130.263 44.8277 130.263 44.8271C130.263 44.8264 130.263 44.8258 130.263 44.8251C130.263 44.8244 130.263 44.8238 130.263 44.8232C130.263 44.8225 130.263 44.8219 130.263 44.8212C130.263 44.8206 130.263 44.8199 130.263 44.8193C130.263 44.8186 130.263 44.818 130.263 44.8173C130.263 44.8167 130.263 44.8161 130.263 44.8154C130.263 44.8147 130.263 44.8141 130.263 44.8134C130.263 44.8128 130.263 44.8121 130.263 44.8115C130.263 44.8108 130.263 44.8102 130.263 44.8095C130.263 44.8089 130.263 44.8082 130.263 44.8075C130.263 44.8069 130.263 44.8063 130.263 44.8056C130.263 44.805 130.263 44.8043 130.263 44.8037C130.263 44.803 130.263 44.8024 130.263 44.8017C130.263 44.8011 130.263 44.8004 130.263 44.7998C130.263 44.7991 130.263 44.7985 130.263 44.7979C130.263 44.7972 130.263 44.7965 130.263 44.7959C130.263 44.7952 130.263 44.7946 130.263 44.7939C130.263 44.7932 130.263 44.7926 130.263 44.792C130.263 44.7913 130.263 44.7907 130.263 44.79C130.263 44.7893 130.263 44.7887 130.263 44.788C130.263 44.7874 130.263 44.7868 130.263 44.7861C130.263 44.7855 130.263 44.7848 130.263 44.7841C130.263 44.7835 130.263 44.7828 130.263 44.7822C130.263 44.7816 130.263 44.7809 130.263 44.7802C130.263 44.7796 130.263 44.7789 130.263 44.7783C130.263 44.7776 130.263 44.7769 130.263 44.7763C130.263 44.7756 130.263 44.775 130.263 44.7744C130.263 44.7737 130.263 44.7731 130.263 44.7724C130.263 44.7717 130.263 44.7711 130.263 44.7704C130.263 44.7698 130.263 44.7691 130.263 44.7685C130.263 44.7678 130.263 44.7672 130.263 44.7665C130.263 44.7659 130.263 44.7652 130.263 44.7646C130.263 44.7639 130.263 44.7632 130.263 44.7626C130.263 44.7619 130.263 44.7613 130.263 44.7606C130.263 44.76 130.263 44.7594 130.263 44.7587C130.263 44.758 130.263 44.7574 130.263 44.7567C130.263 44.7561 130.263 44.7554 130.263 44.7547C130.263 44.7541 130.263 44.7534 130.263 44.7528C130.263 44.7521 130.263 44.7514 130.263 44.7508C130.263 44.7502 130.263 44.7495 130.263 44.7489C130.263 44.7482 130.263 44.7476 130.263 44.7469C130.263 44.7462 130.263 44.7456 130.263 44.7449C130.263 44.7443 130.263 44.7436 130.263 44.7429C130.263 44.7423 130.263 44.7416 130.263 44.741C130.263 44.7403 130.263 44.7396 130.263 44.739C130.263 44.7383 130.263 44.7377 130.263 44.737C130.263 44.7364 130.263 44.7357 130.263 44.735C130.263 44.7344 130.263 44.7338 130.263 44.7331C130.263 44.7325 130.263 44.7318 130.263 44.7311C130.263 44.7305 130.263 44.7298 130.263 44.7292C130.263 44.7285 130.263 44.7278 130.263 44.7272C130.263 44.7265 130.263 44.7259 130.263 44.7252C130.263 44.7246 130.263 44.7239 130.263 44.7232C130.263 44.7226 130.263 44.7219 130.263 44.7213C130.263 44.7206 130.263 44.7199 130.263 44.7193C130.263 44.7186 130.263 44.718 130.263 44.7173C130.263 44.7167 130.263 44.716 130.263 44.7153C130.263 44.7147 130.263 44.714 130.263 44.7134C130.263 44.7127 130.263 44.712 130.263 44.7114C130.263 44.7107 130.263 44.7101 130.263 44.7094C130.263 44.7087 130.263 44.7081 130.263 44.7074C130.263 44.7068 130.263 44.7061 130.263 44.7054C130.263 44.7047 130.263 44.7041 130.263 44.7034C130.263 44.7028 130.263 44.7021 130.263 44.7014C130.263 44.7008 130.263 44.7001 130.263 44.6995C130.263 44.6988 130.263 44.6981 130.263 44.6975C130.263 44.6968 130.263 44.6962 130.263 44.6955C130.263 44.6949 130.263 44.6942 130.263 44.6935C130.263 44.6929 130.263 44.6922 130.263 44.6916C130.263 44.6908 130.263 44.6902 130.263 44.6895C130.263 44.6889 130.263 44.6882 130.263 44.6875C130.263 44.6869 130.263 44.6862 130.263 44.6856C130.263 44.6849 130.263 44.6843 130.263 44.6836C130.263 44.6829 130.263 44.6823 130.263 44.6816C130.263 44.6809 130.263 44.6802 130.263 44.6796C130.263 44.6789 130.263 44.6783 130.263 44.6776C130.263 44.6769 130.263 44.6763 130.263 44.6756C130.263 44.675 130.263 44.6743 130.263 44.6736C130.263 44.6729 130.263 44.6723 130.263 44.6716C130.263 44.671 130.263 44.6703 130.263 44.6696C130.263 44.669 130.263 44.6683 130.263 44.6676C130.263 44.667 130.263 44.6663 130.263 44.6656C130.263 44.665 130.263 44.6643 130.263 44.6637C130.263 44.663 130.263 44.6623 130.263 44.6616C130.263 44.661 130.263 44.6603 130.263 44.6596C130.263 44.659 130.263 44.6583 130.263 44.6577C130.263 44.657 130.263 44.6563 130.263 44.6556C130.263 44.655 130.263 44.6543 130.263 44.6537C130.263 44.653 130.263 44.6523 130.263 44.6516C130.263 44.651 130.263 44.6503 130.263 44.6496C130.263 44.649 130.263 44.6483 130.263 44.6476C130.263 44.647 130.263 44.6463 130.263 44.6456C130.263 44.645 130.263 44.6443 130.263 44.6436C130.263 44.6429 130.263 44.6423 130.263 44.6416C130.263 44.641 130.263 44.6402 130.263 44.6396C130.263 44.6389 130.263 44.6383 130.263 44.6376C130.263 44.6369 130.263 44.6362 130.263 44.6356C130.263 44.6349 130.263 44.6343 130.263 44.6335C130.263 44.6329 130.263 44.6322 130.263 44.6316C130.263 44.6309 130.263 44.6302 130.263 44.6295C130.263 44.6289 130.263 44.6282 130.263 44.6275C130.263 44.6268 130.263 44.6262 130.263 44.6255C130.263 44.6249 130.263 44.6242 130.263 44.6235C130.263 44.6228 130.263 44.6222 130.263 44.6215C130.263 44.6208 130.263 44.6201 130.263 44.6195C130.263 44.6188 130.263 44.6181 130.263 44.6174C130.263 44.6168 130.263 44.6161 130.263 44.6154C130.263 44.6147 130.263 44.6141 130.263 44.6134C130.263 44.6127 130.263 44.612 130.263 44.6114C130.263 44.6107 130.263 44.61 130.263 44.6093C130.263 44.6087 130.263 44.608 130.263 44.6073C130.263 44.6067 130.263 44.606 130.263 44.6053C130.263 44.6046 130.263 44.604 130.263 44.6033C130.263 44.6026 130.263 44.6019 130.263 44.6013C130.263 44.6006 130.263 44.5999 130.263 44.5992C130.263 44.5986 130.263 44.5979 130.263 44.5972C130.263 44.5965 130.263 44.5959 130.263 44.5952C130.263 44.5945 130.263 44.5938 130.263 44.5931C130.263 44.5925 130.263 44.5918 130.263 44.5911C130.263 44.5904 130.263 44.5898 130.263 44.589C130.263 44.5884 130.263 44.5877 130.263 44.587C130.263 44.5864 130.263 44.5857 130.263 44.585C130.263 44.5843 130.263 44.5837 130.263 44.5829C130.263 44.5823 130.263 44.5816 130.263 44.5809C130.263 44.5802 130.263 44.5796 130.263 44.5789C130.263 44.5782 130.263 44.5775 130.263 44.5768C130.263 44.5762 130.263 44.5755 130.263 44.5748C130.263 44.5741 130.263 44.5735 130.263 44.5728C130.263 44.5721 130.263 44.5714 130.263 44.5707C130.263 44.5701 130.263 44.5693 130.263 44.5687C130.263 44.568 130.263 44.5673 130.263 44.5667C130.263 44.5659 130.263 44.5653 130.263 44.5646C130.263 44.5639 130.263 44.5632 130.263 44.5625C130.263 44.5619 130.263 44.5612 130.263 44.5605C130.263 44.5598 130.263 44.5591 130.263 44.5584C130.263 44.5578 130.263 44.5571 130.263 44.5564C130.263 44.5557 130.263 44.555 130.263 44.5543C130.263 44.5537 130.263 44.553 130.263 44.5523C130.263 44.5516 130.263 44.5509 130.263 44.5503C130.263 44.5495 130.263 44.5489 130.263 44.5482C130.263 44.5475 130.263 44.5468 130.263 44.5461C130.263 44.5455 130.263 44.5447 130.263 44.5441C130.263 44.5434 130.263 44.5427 130.263 44.542C130.263 44.5413 130.263 44.5407 130.263 44.5399C130.263 44.5393 130.263 44.5386 130.263 44.5379C130.263 44.5372 130.263 44.5365 130.263 44.5358C130.263 44.5352 130.263 44.5344 130.263 44.5338C130.263 44.5331 130.263 44.5324 130.263 44.5317C130.263 44.531 130.263 44.5303 130.263 44.5296C130.263 44.5289 130.263 44.5283 130.263 44.5276C130.263 44.5269 130.263 44.5262 130.263 44.5255C130.263 44.5248 130.263 44.5241 130.263 44.5234C130.263 44.5228 130.263 44.522 130.263 44.5214C130.263 44.5207 130.263 44.52 130.263 44.5193C130.263 44.5186 130.263 44.5179 130.263 44.5172C130.263 44.5165 130.263 44.5158 130.263 44.5152C130.263 44.5144 130.263 44.5138 130.263 44.5131C130.263 44.5123 130.263 44.5117 130.263 44.511C130.263 44.5103 130.263 44.5096 130.263 44.5089C130.263 44.5082 130.263 44.5076 130.263 44.5068C130.263 44.5061 130.263 44.5055 130.263 44.5047C130.263 44.5041 130.263 44.5034 130.263 44.5026C130.263 44.502 130.263 44.5013 130.263 44.5006C130.263 44.4999 130.263 44.4992 130.263 44.4985C130.263 44.4978 130.263 44.4971 130.263 44.4964C130.263 44.4957 130.263 44.495 130.263 44.4943C130.263 44.4937 130.263 44.4929 130.263 44.4922C130.263 44.4916 130.263 44.4908 130.263 44.4901C130.263 44.4895 130.263 44.4887 130.263 44.488C130.263 44.4874 130.263 44.4867 130.263 44.4859C130.263 44.4853 130.263 44.4846 130.263 44.4839C130.263 44.4832 130.263 44.4825 130.263 44.4818C130.263 44.4811 130.263 44.4804 130.263 44.4797C130.263 44.479 130.263 44.4783 130.263 44.4775C130.263 44.4769 130.263 44.4762 130.263 44.4755C130.263 44.4748 130.263 44.4741 130.263 44.4734C130.263 44.4727 130.263 44.472 130.263 44.4713C130.263 44.4706 130.263 44.4699 130.263 44.4692C130.263 44.4685 130.263 44.4678 130.263 44.4671H126.671C126.671 44.4678 126.671 44.4685 126.671 44.4692C126.671 44.4699 126.671 44.4706 126.671 44.4713C126.671 44.472 126.671 44.4727 126.671 44.4734C126.671 44.4741 126.671 44.4748 126.671 44.4755C126.671 44.4762 126.671 44.4769 126.671 44.4775C126.671 44.4783 126.671 44.479 126.671 44.4797C126.671 44.4804 126.671 44.4811 126.671 44.4818C126.671 44.4825 126.671 44.4832 126.671 44.4839C126.671 44.4846 126.671 44.4853 126.671 44.4859C126.671 44.4867 126.671 44.4874 126.671 44.488C126.671 44.4887 126.671 44.4895 126.671 44.4901C126.671 44.4908 126.671 44.4916 126.671 44.4922C126.671 44.4929 126.671 44.4937 126.671 44.4943C126.671 44.495 126.671 44.4957 126.671 44.4964C126.671 44.4971 126.671 44.4978 126.671 44.4985C126.671 44.4992 126.671 44.4999 126.671 44.5006C126.671 44.5013 126.671 44.502 126.671 44.5026C126.671 44.5034 126.671 44.5041 126.671 44.5047C126.671 44.5055 126.671 44.5061 126.671 44.5068C126.671 44.5076 126.671 44.5082 126.671 44.5089C126.671 44.5096 126.671 44.5103 126.671 44.511C126.671 44.5117 126.671 44.5123 126.671 44.5131C126.671 44.5138 126.671 44.5144 126.671 44.5152C126.671 44.5158 126.671 44.5165 126.671 44.5172C126.671 44.5179 126.671 44.5186 126.671 44.5193C126.671 44.52 126.671 44.5207 126.671 44.5214C126.671 44.522 126.671 44.5228 126.671 44.5234C126.671 44.5241 126.671 44.5248 126.671 44.5255C126.671 44.5262 126.671 44.5269 126.671 44.5276C126.671 44.5283 126.671 44.5289 126.671 44.5296C126.671 44.5303 126.671 44.531 126.671 44.5317C126.671 44.5324 126.671 44.5331 126.671 44.5338C126.671 44.5344 126.671 44.5352 126.671 44.5358C126.671 44.5365 126.671 44.5372 126.671 44.5379C126.671 44.5386 126.671 44.5393 126.671 44.5399C126.671 44.5407 126.671 44.5413 126.671 44.542C126.671 44.5427 126.671 44.5434 126.671 44.5441C126.671 44.5447 126.671 44.5455 126.671 44.5461C126.671 44.5468 126.671 44.5475 126.671 44.5482C126.671 44.5489 126.671 44.5495 126.671 44.5503C126.671 44.5509 126.671 44.5516 126.671 44.5523C126.671 44.553 126.671 44.5537 126.671 44.5543C126.671 44.555 126.671 44.5557 126.671 44.5564C126.671 44.5571 126.671 44.5578 126.671 44.5584C126.671 44.5591 126.671 44.5598 126.671 44.5605C126.671 44.5612 126.671 44.5619 126.671 44.5625C126.671 44.5632 126.671 44.5639 126.671 44.5646C126.671 44.5653 126.671 44.5659 126.671 44.5667C126.671 44.5673 126.671 44.568 126.671 44.5687C126.671 44.5693 126.671 44.5701 126.671 44.5707C126.671 44.5714 126.671 44.5721 126.671 44.5728C126.671 44.5735 126.671 44.5741 126.671 44.5748C126.671 44.5755 126.671 44.5762 126.671 44.5768C126.671 44.5775 126.671 44.5782 126.671 44.5789C126.671 44.5796 126.671 44.5802 126.671 44.5809C126.671 44.5816 126.671 44.5823 126.671 44.5829C126.671 44.5837 126.671 44.5843 126.671 44.585C126.671 44.5857 126.671 44.5864 126.671 44.587C126.671 44.5877 126.671 44.5884 126.671 44.589C126.671 44.5898 126.671 44.5904 126.671 44.5911C126.671 44.5918 126.671 44.5925 126.671 44.5931C126.671 44.5938 126.671 44.5945 126.671 44.5952C126.671 44.5959 126.671 44.5965 126.671 44.5972C126.671 44.5979 126.671 44.5986 126.671 44.5992C126.671 44.5999 126.671 44.6006 126.671 44.6013C126.671 44.6019 126.671 44.6026 126.671 44.6033C126.671 44.604 126.671 44.6046 126.671 44.6053C126.671 44.606 126.671 44.6067 126.671 44.6073C126.671 44.608 126.671 44.6087 126.671 44.6093C126.671 44.61 126.671 44.6107 126.671 44.6114C126.671 44.612 126.671 44.6127 126.671 44.6134C126.671 44.6141 126.671 44.6147 126.671 44.6154C126.671 44.6161 126.671 44.6168 126.671 44.6174C126.671 44.6181 126.671 44.6188 126.671 44.6195C126.671 44.6201 126.671 44.6208 126.671 44.6215C126.671 44.6222 126.671 44.6228 126.671 44.6235C126.671 44.6242 126.671 44.6249 126.671 44.6255C126.671 44.6262 126.671 44.6268 126.671 44.6275C126.671 44.6282 126.671 44.6289 126.671 44.6295C126.671 44.6302 126.671 44.6309 126.671 44.6316C126.671 44.6322 126.671 44.6329 126.671 44.6335C126.671 44.6343 126.671 44.6349 126.671 44.6356C126.671 44.6362 126.671 44.6369 126.671 44.6376C126.671 44.6383 126.671 44.6389 126.671 44.6396C126.671 44.6402 126.671 44.641 126.671 44.6416C126.671 44.6423 126.671 44.6429 126.671 44.6436C126.671 44.6443 126.671 44.645 126.671 44.6456C126.671 44.6463 126.671 44.647 126.671 44.6476C126.671 44.6483 126.671 44.649 126.671 44.6496C126.671 44.6503 126.671 44.651 126.671 44.6516C126.671 44.6523 126.671 44.653 126.671 44.6537C126.671 44.6543 126.671 44.655 126.671 44.6556C126.671 44.6563 126.671 44.657 126.671 44.6577C126.671 44.6583 126.671 44.659 126.671 44.6596C126.671 44.6603 126.671 44.661 126.671 44.6616C126.671 44.6623 126.671 44.663 126.671 44.6637C126.671 44.6643 126.671 44.665 126.671 44.6656C126.671 44.6663 126.671 44.667 126.671 44.6676C126.671 44.6683 126.671 44.669 126.671 44.6696C126.671 44.6703 126.671 44.671 126.671 44.6716C126.671 44.6723 126.671 44.6729 126.671 44.6736C126.671 44.6743 126.671 44.675 126.671 44.6756C126.671 44.6763 126.671 44.6769 126.671 44.6776C126.671 44.6783 126.671 44.6789 126.671 44.6796C126.671 44.6802 126.671 44.6809 126.671 44.6816C126.671 44.6823 126.671 44.6829 126.671 44.6836C126.671 44.6843 126.671 44.6849 126.671 44.6856C126.671 44.6862 126.671 44.6869 126.671 44.6875C126.671 44.6882 126.671 44.6889 126.671 44.6895C126.671 44.6902 126.671 44.6908 126.671 44.6916C126.671 44.6922 126.671 44.6929 126.671 44.6935C126.671 44.6942 126.671 44.6949 126.671 44.6955C126.671 44.6962 126.671 44.6968 126.671 44.6975C126.671 44.6981 126.671 44.6988 126.671 44.6995C126.671 44.7001 126.671 44.7008 126.671 44.7014C126.671 44.7021 126.671 44.7028 126.671 44.7034C126.671 44.7041 126.671 44.7047 126.671 44.7054C126.671 44.7061 126.671 44.7068 126.671 44.7074C126.671 44.7081 126.671 44.7087 126.671 44.7094C126.671 44.7101 126.671 44.7107 126.671 44.7114C126.671 44.712 126.671 44.7127 126.671 44.7134C126.671 44.714 126.671 44.7147 126.671 44.7153C126.671 44.716 126.671 44.7167 126.671 44.7173C126.671 44.718 126.671 44.7186 126.671 44.7193C126.671 44.7199 126.671 44.7206 126.671 44.7213C126.671 44.7219 126.671 44.7226 126.671 44.7232C126.671 44.7239 126.671 44.7246 126.671 44.7252C126.671 44.7259 126.671 44.7265 126.671 44.7272C126.671 44.7278 126.671 44.7285 126.671 44.7292C126.671 44.7298 126.671 44.7305 126.671 44.7311C126.671 44.7318 126.671 44.7325 126.671 44.7331C126.671 44.7338 126.671 44.7344 126.671 44.735C126.671 44.7357 126.671 44.7364 126.671 44.737C126.671 44.7377 126.671 44.7383 126.671 44.739C126.671 44.7396 126.671 44.7403 126.671 44.741C126.671 44.7416 126.671 44.7423 126.671 44.7429C126.671 44.7436 126.671 44.7443 126.671 44.7449C126.671 44.7456 126.671 44.7462 126.671 44.7469C126.671 44.7476 126.671 44.7482 126.671 44.7489C126.671 44.7495 126.671 44.7502 126.671 44.7508C126.671 44.7514 126.671 44.7521 126.671 44.7528C126.671 44.7534 126.671 44.7541 126.671 44.7547C126.671 44.7554 126.671 44.7561 126.671 44.7567C126.671 44.7574 126.671 44.758 126.671 44.7587C126.671 44.7594 126.671 44.76 126.671 44.7606C126.671 44.7613 126.671 44.7619 126.671 44.7626C126.671 44.7632 126.671 44.7639 126.671 44.7646C126.671 44.7652 126.671 44.7659 126.671 44.7665C126.671 44.7672 126.671 44.7678 126.671 44.7685C126.671 44.7691 126.671 44.7698 126.671 44.7704C126.671 44.7711 126.671 44.7717 126.671 44.7724C126.671 44.7731 126.671 44.7737 126.671 44.7744C126.671 44.775 126.671 44.7756 126.671 44.7763C126.671 44.7769 126.671 44.7776 126.671 44.7783C126.671 44.7789 126.671 44.7796 126.671 44.7802C126.671 44.7809 126.671 44.7816 126.671 44.7822C126.671 44.7828 126.671 44.7835 126.671 44.7841C126.671 44.7848 126.671 44.7855 126.671 44.7861C126.671 44.7868 126.671 44.7874 126.671 44.788C126.671 44.7887 126.671 44.7893 126.671 44.79C126.671 44.7907 126.671 44.7913 126.671 44.792C126.671 44.7926 126.671 44.7932 126.671 44.7939C126.671 44.7946 126.671 44.7952 126.671 44.7959C126.671 44.7965 126.671 44.7972 126.671 44.7979C126.671 44.7985 126.671 44.7991 126.671 44.7998C126.671 44.8004 126.671 44.8011 126.671 44.8017C126.671 44.8024 126.671 44.803 126.671 44.8037C126.671 44.8043 126.671 44.805 126.671 44.8056C126.671 44.8063 126.671 44.8069 126.671 44.8075C126.671 44.8082 126.671 44.8089 126.671 44.8095C126.671 44.8102 126.671 44.8108 126.671 44.8115C126.671 44.8121 126.671 44.8128 126.671 44.8134C126.671 44.8141 126.671 44.8147 126.671 44.8154C126.671 44.8161 126.671 44.8167 126.671 44.8173C126.671 44.818 126.671 44.8186 126.671 44.8193C126.671 44.8199 126.671 44.8206 126.671 44.8212C126.671 44.8219 126.671 44.8225 126.671 44.8232C126.671 44.8238 126.671 44.8244 126.671 44.8251C126.671 44.8258 126.671 44.8264 126.671 44.8271C126.671 44.8277 126.671 44.8283 126.671 44.829C126.671 44.8296 126.671 44.8303 126.671 44.831C126.671 44.8316 126.671 44.8322 126.671 44.8329C126.671 44.8335 126.671 44.8342 126.671 44.8349C126.671 44.8355 126.671 44.8361 126.671 44.8368C126.671 44.8374 126.671 44.8381 126.671 44.8387C126.671 44.8393 126.671 44.84 126.671 44.8407C126.671 44.8413 126.671 44.842 126.671 44.8426C126.671 44.8432 126.671 44.8439 126.671 44.8446C126.671 44.8452 126.671 44.8459 126.671 44.8465C126.671 44.8471 126.671 44.8478 126.671 44.8484C126.671 44.8491 126.671 44.8497 126.671 44.8504C126.671 44.851 126.671 44.8517 126.671 44.8523C126.671 44.8529 126.671 44.8536 126.671 44.8543C126.671 44.8549 126.671 44.8556 126.671 44.8562C126.671 44.8568 126.671 44.8575 126.671 44.8581C126.671 44.8588 126.671 44.8594 126.671 44.8601C126.671 44.8607 126.671 44.8614 126.671 44.862C126.671 44.8626 126.671 44.8633 126.671 44.864C126.671 44.8646 126.671 44.8653 126.671 44.8659C126.671 44.8665 126.671 44.8672 126.671 44.8679C126.671 44.8685 126.671 44.8691 126.671 44.8698C126.671 44.8704 126.671 44.8711 126.671 44.8717C126.671 44.8723 126.671 44.873 126.671 44.8737C126.671 44.8743 126.671 44.8749 126.671 44.8756C126.671 44.8762 126.671 44.8769 126.671 44.8775C126.671 44.8781 126.671 44.8788 126.671 44.8795C126.671 44.8801 126.671 44.8807 126.671 44.8814C126.671 44.882 126.671 44.8827 126.671 44.8833C126.671 44.884 126.671 44.8846 126.671 44.8853C126.671 44.8859 126.671 44.8865 126.671 44.8872C126.671 44.8879 126.671 44.8885 126.671 44.8891C126.671 44.8898 126.671 44.8904 126.671 44.8911C126.671 44.8917 126.671 44.8923 126.671 44.893C126.671 44.8937 126.671 44.8943 126.671 44.8949C126.671 44.8956 126.671 44.8962 126.671 44.8969C126.671 44.8975 126.671 44.8981 126.671 44.8988C126.671 44.8995 126.671 44.9001 126.671 44.9007C126.671 44.9014 126.671 44.902 126.671 44.9027C126.671 44.9033 126.671 44.904 126.671 44.9046C126.671 44.9053 126.671 44.9059 126.671 44.9065C126.671 44.9072 126.671 44.9078 126.671 44.9084C126.671 44.9091 126.671 44.9098 126.671 44.9104C126.671 44.911 126.671 44.9117 126.671 44.9123C126.671 44.913 126.671 44.9137 126.671 44.9143C126.671 44.9149 126.671 44.9156 126.671 44.9162C126.671 44.9168 126.671 44.9175 126.671 44.9182C126.671 44.9188 126.671 44.9194 126.671 44.9201C126.671 44.9207 126.671 44.9214 126.671 44.922C126.671 44.9226 126.671 44.9233 126.671 44.924C126.671 44.9246 126.671 44.9252 126.671 44.9259C126.671 44.9265 126.671 44.9271 126.671 44.9278C126.671 44.9285 126.671 44.9291 126.671 44.9297C126.671 44.9304 126.671 44.931 126.671 44.9317C126.671 44.9323 126.671 44.9329 126.671 44.9336C126.671 44.9343 126.671 44.9349 126.671 44.9355C126.671 44.9362 126.671 44.9368 126.671 44.9374C126.671 44.9381 126.671 44.9387 126.671 44.9394C126.671 44.94 126.671 44.9407 126.671 44.9413C126.671 44.942 126.671 44.9426 126.671 44.9432C126.671 44.9439 126.671 44.9446 126.671 44.9452C126.671 44.9458 126.671 44.9465 126.671 44.9471C126.671 44.9477 126.671 44.9484 126.671 44.949C126.671 44.9497 126.671 44.9503 126.671 44.951C126.671 44.9516 126.671 44.9523 126.671 44.9529C126.671 44.9535 126.671 44.9542 126.671 44.9548C126.671 44.9555 126.671 44.9561 126.671 44.9568C126.671 44.9574 126.671 44.958 126.671 44.9587C126.671 44.9593 126.671 44.9599 126.671 44.9606C126.671 44.9613 126.671 44.9619 126.671 44.9625C126.671 44.9632 126.671 44.9638 126.671 44.9645C126.671 44.9651 126.671 44.9658 126.671 44.9664C126.671 44.9671 126.671 44.9677 126.671 44.9683C126.671 44.969 126.671 44.9696 126.671 44.9702C126.671 44.9709 126.671 44.9716 126.671 44.9722C126.671 44.9728 126.671 44.9735 126.671 44.9741C126.671 44.9748 126.671 44.9754 126.671 44.9761C126.671 44.9767 126.671 44.9773 126.671 44.978C126.671 44.9786 126.671 44.9793 126.671 44.9799C126.671 44.9805 126.671 44.9812 126.671 44.9819C126.671 44.9825 126.671 44.9831 126.671 44.9838C126.671 44.9844 126.671 44.985 126.671 44.9857C126.671 44.9863 126.671 44.987 126.671 44.9876C126.671 44.9883 126.671 44.9889 126.671 44.9896C126.671 44.9902 126.671 44.9908 126.671 44.9915C126.671 44.9922 126.671 44.9928 126.671 44.9934C126.671 44.9941 126.671 44.9947 126.671 44.9953C126.671 44.996 126.671 44.9967 126.671 44.9973C126.671 44.9979 126.671 44.9986 126.671 44.9992C126.671 44.9998 126.671 45.0005 126.671 45.0011C126.671 45.0018 126.671 45.0024 126.671 45.0031C126.671 45.0037 126.671 45.0044 126.671 45.005C126.671 45.0056 126.671 45.0063 126.671 45.007C126.671 45.0076 126.671 45.0082 126.671 45.0089C126.671 45.0095 126.671 45.0101 126.671 45.0108C126.671 45.0114 126.671 45.0121 126.671 45.0127C126.671 45.0134 126.671 45.014 126.671 45.0147C126.671 45.0153 126.671 45.0159 126.671 45.0166C126.671 45.0173 126.671 45.0179 126.671 45.0185C126.671 45.0192 126.671 45.0198 126.671 45.0204C126.671 45.0211 126.671 45.0217 126.671 45.0224C126.671 45.023 126.671 45.0237 126.671 45.0243C126.671 45.025 126.671 45.0256 126.671 45.0262C126.671 45.0269 126.671 45.0276 126.671 45.0282C126.671 45.0288 126.671 45.0295 126.671 45.0301C126.671 45.0307 126.671 45.0314 126.671 45.032C126.671 45.0327 126.671 45.0333 126.671 45.034C126.671 45.0346 126.671 45.0353 126.671 45.0359C126.671 45.0365 126.671 45.0372 126.671 45.0378C126.671 45.0384 126.671 45.0391 126.671 45.0398C126.671 45.0404 126.671 45.0411 126.671 45.0417C126.671 45.0423 126.671 45.043 126.671 45.0437C126.671 45.0443 126.671 45.0449 126.671 45.0456C126.671 45.0462 126.671 45.0468 126.671 45.0475C126.671 45.0482 126.671 45.0488 126.671 45.0494C126.671 45.0501 126.671 45.0507 126.671 45.0514C126.671 45.052 126.671 45.0526 126.671 45.0533C126.671 45.054 126.671 45.0546 126.671 45.0552C126.671 45.0559 126.671 45.0565 126.671 45.0572C126.671 45.0578 126.671 45.0585 126.671 45.0591C126.671 45.0598 126.671 45.0604 126.671 45.061C126.671 45.0617 126.671 45.0623 126.671 45.063C126.671 45.0636 126.671 45.0643 126.671 45.0649C126.671 45.0656 126.671 45.0662 126.671 45.0668C126.671 45.0675 126.671 45.0682 126.671 45.0688C126.671 45.0694 126.671 45.0701 126.671 45.0707C126.671 45.0714 126.671 45.072 126.671 45.0726C126.671 45.0733 126.671 45.074 126.671 45.0746C126.671 45.0752 126.671 45.0759 126.671 45.0765C126.671 45.0772 126.671 45.0778 126.671 45.0784C126.671 45.0791 126.671 45.0798 126.671 45.0804C126.671 45.081 126.671 45.0817 126.671 45.0823C126.671 45.083 126.671 45.0837 126.671 45.0843C126.671 45.0849 126.671 45.0856 126.671 45.0862C126.671 45.0868 126.671 45.0875 126.671 45.0881C126.671 45.0888 126.671 45.0895 126.671 45.0901C126.671 45.0907 126.671 45.0914 126.671 45.092C126.671 45.0927 126.671 45.0933 126.671 45.094C126.671 45.0946 126.671 45.0953 126.671 45.0959C126.671 45.0965 126.671 45.0972 126.671 45.0978C126.671 45.0985 126.671 45.0992 126.671 45.0998C126.671 45.1004 126.671 45.1011 126.671 45.1017C126.671 45.1024 126.671 45.103 126.671 45.1037C126.671 45.1043 126.671 45.105 126.671 45.1056C126.671 45.1062 126.671 45.1069 126.671 45.1076C126.671 45.1082 126.671 45.1089 126.671 45.1095C126.671 45.1101 126.671 45.1108 126.671 45.1114C126.671 45.1121 126.671 45.1128 126.671 45.1134C126.671 45.114 126.671 45.1147 126.671 45.1153C126.671 45.116 126.671 45.1167 126.671 45.1173C126.671 45.1179 126.671 45.1186 126.671 45.1192C126.671 45.1199 126.671 45.1205 126.671 45.1211C126.671 45.1218 126.671 45.1225 126.671 45.1231C126.671 45.1238 126.671 45.1244 126.671 45.125C126.671 45.1257 126.671 45.1264 126.671 45.127C126.671 45.1277 126.671 45.1283 126.671 45.1289C126.671 45.1296 126.671 45.1302 126.671 45.1309C126.671 45.1316 126.671 45.1322 126.671 45.1328C126.671 45.1335 126.671 45.1341 126.671 45.1348C126.671 45.1355 126.671 45.136 126.671 45.1367C126.671 45.1374 126.671 45.138 126.671 45.1387C126.671 45.1393 126.671 45.14 126.671 45.1406C126.671 45.1413 126.671 45.1419 126.671 45.1426C126.671 45.1432 126.671 45.1439 126.671 45.1446C126.671 45.1452 126.671 45.1458 126.671 45.1465C126.671 45.1471 126.671 45.1478 126.671 45.1484C126.671 45.1491 126.671 45.1497 126.671 45.1504C126.671 45.151 126.671 45.1517 126.671 45.1523C126.671 45.153 126.671 45.1537 126.671 45.1543C126.671 45.1549 126.671 45.1556 126.671 45.1562C126.671 45.1569 126.671 45.1575 126.671 45.1582C126.671 45.1589 126.671 45.1595 126.671 45.1601C126.671 45.1608 126.671 45.1614 126.671 45.1621C126.671 45.1628 126.671 45.1634 126.671 45.1641C126.671 45.1647 126.671 45.1653 126.671 45.166C126.671 45.1667 126.671 45.1673 126.671 45.168C126.671 45.1686 126.671 45.1693 126.671 45.1699C126.671 45.1705 126.671 45.1712 126.671 45.1719C126.671 45.1725 126.671 45.1732 126.671 45.1738C126.671 45.1745 126.671 45.1752 126.671 45.1758C126.671 45.1765 126.671 45.1771 126.671 45.1777C126.671 45.1784 126.671 45.179 126.671 45.1797C126.671 45.1804 126.671 45.181 126.671 45.1817C126.671 45.1823 126.671 45.183 126.671 45.1836C126.671 45.1843 126.671 45.1849 126.671 45.1856C126.671 45.1862 126.671 45.1869 126.671 45.1875C126.671 45.1882 126.671 45.1889 126.671 45.1895C126.671 45.1902 126.671 45.1908 126.671 45.1915C126.671 45.1921 126.671 45.1928 126.671 45.1934C126.671 45.1941 126.671 45.1947 126.671 45.1954C126.671 45.1961 126.671 45.1967 126.671 45.1974C126.671 45.198 126.671 45.1987 126.671 45.1994C126.671 45.2 126.671 45.2007 126.671 45.2013C126.671 45.2019 126.671 45.2026 126.671 45.2032C126.671 45.2039 126.671 45.2046 126.671 45.2052C126.671 45.2059 126.671 45.2065 126.671 45.2072C126.671 45.2079 126.671 45.2085 126.671 45.2092C126.671 45.2098 126.671 45.2105 126.671 45.2111C126.671 45.2118 126.671 45.2125 126.671 45.2131C126.671 45.2138 126.671 45.2144 126.671 45.2151C126.671 45.2158 126.671 45.2164 126.671 45.2171C126.671 45.2177 126.671 45.2183 126.671 45.219C126.671 45.2196 126.671 45.2203 126.671 45.221C126.671 45.2216 126.671 45.2223 126.671 45.2229C126.671 45.2236 126.671 45.2243 126.671 45.2249C126.671 45.2256 126.671 45.2262 126.671 45.2269C126.671 45.2275 126.671 45.2282 126.671 45.2289C126.671 45.2295 126.671 45.2302 126.671 45.2308C126.671 45.2315 126.671 45.2322 126.671 45.2328C126.671 45.2335 126.671 45.2341 126.671 45.2348C126.671 45.2355 126.671 45.2361 126.671 45.2368C126.671 45.2374 126.671 45.2381 126.671 45.2388C126.671 45.2394 126.671 45.2401 126.671 45.2407C126.671 45.2414 126.671 45.242 126.671 45.2427C126.671 45.2434 126.671 45.244 126.671 45.2447C126.671 45.2453 126.671 45.246 126.671 45.2467C126.671 45.2474 126.671 45.248 126.671 45.2487C126.671 45.2494 126.671 45.25 126.671 45.2507C126.671 45.2513 126.671 45.252 126.671 45.2526C126.671 45.2533 126.671 45.254 126.671 45.2546C126.671 45.2553 126.671 45.2559 126.671 45.2566C126.671 45.2573 126.671 45.2579 126.671 45.2586C126.671 45.2592 126.671 45.2599 126.671 45.2605C126.671 45.2613 126.671 45.2619 126.671 45.2626C126.671 45.2632 126.671 45.2639 126.671 45.2646C126.671 45.2652 126.671 45.2659 126.671 45.2665C126.671 45.2672 126.671 45.2679 126.671 45.2685C126.671 45.2692 126.671 45.2698 126.671 45.2705C126.671 45.2712 126.671 45.2719 126.671 45.2725C126.671 45.2732 126.671 45.2738 126.671 45.2745C126.671 45.2752 126.671 45.2758 126.671 45.2765C126.671 45.2771 126.671 45.2778 126.671 45.2785C126.671 45.2792 126.671 45.2798 126.671 45.2805C126.671 45.2811 126.671 45.2818 126.671 45.2825C126.671 45.2831 126.671 45.2838 126.671 45.2845C126.671 45.2852 126.671 45.2858 126.671 45.2865C126.671 45.2871 126.671 45.2878 126.671 45.2884C126.671 45.2891 126.671 45.2898 126.671 45.2905C126.671 45.2911 126.671 45.2918 126.671 45.2925C126.671 45.2931 126.671 45.2938 126.671 45.2944C126.671 45.2952 126.671 45.2958 126.671 45.2965C126.671 45.2971 126.671 45.2978 126.671 45.2985C126.671 45.2991 126.671 45.2998 126.671 45.3005C126.671 45.3011 126.671 45.3018 126.671 45.3025C126.671 45.3031 126.671 45.3038 126.671 45.3045C126.671 45.3052 126.671 45.3058 126.671 45.3065C126.671 45.3071 126.671 45.3079 126.671 45.3085C126.671 45.3092 126.671 45.3098 126.671 45.3105C126.671 45.3111 126.671 45.3119 126.671 45.3125C126.671 45.3132 126.671 45.3138 126.671 45.3145C126.671 45.3152 126.671 45.3159 126.671 45.3165C126.671 45.3172 126.671 45.3179 126.671 45.3186C126.671 45.3192 126.671 45.3199 126.671 45.3205C126.671 45.3212 126.671 45.3219 126.671 45.3226C126.671 45.3232 126.671 45.3239 126.671 45.3246C126.671 45.3253 126.671 45.3259 126.671 45.3266C126.671 45.3273 126.671 45.3279 126.671 45.3286C126.671 45.3293 126.671 45.3299 126.671 45.3306C126.671 45.3313 126.671 45.332 126.671 45.3326C126.671 45.3333 126.671 45.334 126.671 45.3347C126.671 45.3353 126.671 45.336 126.671 45.3367C126.671 45.3374 126.671 45.338 126.671 45.3387C126.671 45.3394 126.671 45.3401 126.671 45.3407C126.671 45.3414 126.671 45.3421 126.671 45.3428C126.671 45.3434 126.671 45.3441 126.671 45.3448C126.671 45.3455 126.671 45.3461 126.671 45.3468C126.671 45.3475 126.671 45.3481 126.671 45.3488C126.671 45.3495 126.671 45.3502 126.671 45.3508C126.671 45.3515 126.671 45.3522 126.671 45.3529C126.671 45.3535 126.671 45.3543 126.671 45.3549C126.671 45.3556 126.671 45.3562 126.671 45.357C126.671 45.3576 126.671 45.3583 126.671 45.359C126.671 45.3596 126.671 45.3603 126.671 45.361C126.671 45.3617 126.671 45.3623 126.671 45.3631C126.671 45.3637 126.671 45.3644 126.671 45.3651C126.671 45.3658 126.671 45.3664 126.671 45.3671C126.671 45.3678 126.671 45.3685 126.671 45.3692C126.671 45.3698 126.671 45.3705 126.671 45.3712C126.671 45.3719 126.671 45.3725 126.671 45.3732C126.671 45.3739 126.671 45.3746 126.671 45.3753C126.671 45.3759 126.671 45.3766 126.671 45.3773C126.671 45.378 126.671 45.3786 126.671 45.3793C126.671 45.38 126.671 45.3807 126.671 45.3814C126.671 45.382 126.671 45.3828 126.671 45.3834C126.671 45.3841 126.671 45.3848 126.671 45.3855C126.671 45.3862 126.671 45.3868 126.671 45.3875C126.671 45.3882 126.671 45.3889 126.671 45.3896C126.671 45.3902 126.671 45.3909 126.671 45.3916C126.671 45.3923 126.671 45.393 126.671 45.3937C126.671 45.3943 126.671 45.395 126.671 45.3957C126.671 45.3964 126.671 45.3971 126.671 45.3978C126.671 45.3984 126.671 45.3991 126.671 45.3998C126.671 45.4005 126.671 45.4012 126.671 45.4019C126.671 45.4026 126.671 45.4032 126.671 45.4039C126.671 45.4046 126.671 45.4053 126.671 45.406C126.671 45.4067 126.671 45.4074 126.671 45.408C126.671 45.4088 126.671 45.4094 126.671 45.4101C126.671 45.4108 126.671 45.4114 126.671 45.4122C126.671 45.4128 126.671 45.4135 126.671 45.4142C126.671 45.4149 126.671 45.4156 126.671 45.4163C126.671 45.4169 126.671 45.4177 126.671 45.4183C126.671 45.419 126.671 45.4197 126.671 45.4204C126.671 45.4211 126.671 45.4218 126.671 45.4225C126.671 45.4232 126.671 45.4238 126.671 45.4246C126.671 45.4252 126.671 45.4259 126.671 45.4266C126.671 45.4273 126.671 45.428 126.671 45.4287C126.671 45.4293 126.671 45.4301 126.671 45.4307C126.671 45.4314 126.671 45.4321 126.671 45.4328C126.671 45.4335 126.671 45.4342 126.671 45.4349C126.671 45.4356 126.671 45.4363 126.671 45.437C126.671 45.4377 126.671 45.4383 126.671 45.4391C126.671 45.4398 126.671 45.4404 126.671 45.4411C126.671 45.4418 126.671 45.4425 126.671 45.4432C126.671 45.4439 126.671 45.4446 126.671 45.4453C126.671 45.446 126.671 45.4467 126.671 45.4474C126.671 45.448 126.671 45.4487 126.671 45.4495C126.671 45.4501 126.671 45.4508 126.671 45.4515C126.671 45.4522 126.671 45.4529 126.671 45.4536C126.671 45.4543 126.671 45.455 126.671 45.4557C126.671 45.4564 126.671 45.4571 126.671 45.4578C126.671 45.4584 126.671 45.4592 126.671 45.4599C126.671 45.4605 126.671 45.4613 126.671 45.462C126.671 45.4626 126.671 45.4634 126.671 45.4641C126.671 45.4647 126.671 45.4655 126.671 45.4662C126.671 45.4668 126.671 45.4675 126.671 45.4682C126.671 45.4689 126.671 45.4697 126.671 45.4703C126.671 45.471 126.671 45.4717 126.671 45.4724C126.671 45.4731 126.671 45.4738 126.671 45.4746C126.671 45.4752 126.671 45.4759 126.671 45.4767C126.671 45.4773 126.671 45.478 126.671 45.4788C126.671 45.4794 126.671 45.4801 126.671 45.4808C126.671 45.4815 126.671 45.4822 126.671 45.4829C126.671 45.4837 126.671 45.4843 126.671 45.485H130.263ZM130.263 44.4671C130.263 40.0248 129.484 36.265 127.759 33.3013C126.008 30.2926 123.36 28.2427 119.919 27.1292L118.813 30.5475C121.478 31.41 123.381 32.9229 124.654 35.1089C125.953 37.3398 126.671 40.4064 126.671 44.4671H130.263ZM120.774 29.9534L129.875 18.4564L127.059 16.2263L117.957 27.7233L120.774 29.9534ZM128.467 15.5449H121.521V19.1377H128.467V15.5449ZM120.105 16.2355L110.704 28.2714L113.535 30.4831L122.937 18.4471L120.105 16.2355ZM113.916 29.3773V2.79043H110.323V29.3773H113.916ZM112.12 0.994019H106.431V4.58683H112.12V0.994019ZM104.635 2.79043V45.485H108.228V2.79043H104.635ZM139.299 17.3413H141.095V15.5449H139.299V17.3413ZM133.55 17.3413V15.5449H131.754V17.3413H133.55ZM156.245 41.7725L154.827 40.6696L154.824 40.6734L154.821 40.6772L156.245 41.7725ZM158.46 17.3413H160.257V15.5449H158.46V17.3413ZM152.712 17.3413V15.5449H150.916V17.3413H152.712ZM139.299 15.5449H133.55V19.1377H139.299V15.5449ZM131.754 17.3413V32.8503H135.347V17.3413H131.754ZM131.754 32.8503C131.754 37.5492 132.823 41.4102 135.319 44.0956C137.838 46.8067 141.51 48 146.005 48V44.4072C142.117 44.4072 139.563 43.385 137.95 41.6499C136.314 39.8892 135.347 37.0736 135.347 32.8503H131.754ZM146.005 48C150.957 48 154.848 46.535 157.669 42.8677L154.821 40.6772C152.851 43.2374 150.156 44.4072 146.005 44.4072V48ZM157.663 42.8753C160.171 39.6516 160.257 36.3214 160.257 32.8503H156.664C156.664 36.3253 156.511 38.5041 154.827 40.6696L157.663 42.8753ZM160.257 32.8503V17.3413H156.664V32.8503H160.257ZM158.46 15.5449H152.712V19.1377H158.46V15.5449ZM150.916 17.3413V32.7305H154.508V17.3413H150.916ZM150.916 32.7305C150.916 35.0574 150.372 36.5316 149.613 37.4053C148.89 38.2367 147.75 38.7785 145.945 38.7785V42.3713C148.513 42.3713 150.756 41.5657 152.324 39.7624C153.855 38.0013 154.508 35.5534 154.508 32.7305H150.916ZM145.945 38.7785C144.18 38.7785 143.075 38.2426 142.373 37.4186C141.629 36.5458 141.095 35.0671 141.095 32.7305H137.502C137.502 35.5437 138.137 37.9872 139.638 39.7491C141.181 41.5598 143.399 42.3713 145.945 42.3713V38.7785ZM141.095 32.7305V17.3413H137.502V32.7305H141.095ZM163.804 22.3114H162.007V24.1078H163.804V22.3114ZM166.678 22.3114H168.474V20.515H166.678V22.3114ZM179.013 45.485L178.986 47.2813L180.81 47.3087V45.485H179.013ZM179.013 39.7365H180.81V38.1068L179.187 37.9486L179.013 39.7365ZM172.307 22.3114V20.515H170.51V22.3114H172.307ZM178.654 22.3114V24.1078H180.45V22.3114H178.654ZM178.654 17.3413H180.45V15.5449H178.654V17.3413ZM172.307 17.3413H170.51V19.1377H172.307V17.3413ZM172.307 10.6946H174.103V8.89821H172.307V10.6946ZM166.678 10.6946V8.89821H164.881V10.6946H166.678ZM166.678 17.3413V19.1377H168.474V17.3413H166.678ZM163.804 17.3413V15.5449H162.007V17.3413H163.804ZM163.804 24.1078H166.678V20.515H163.804V24.1078ZM164.881 22.3114V32.8503H168.474V22.3114H164.881ZM164.881 32.8503C164.881 37.1797 166.065 40.8153 168.573 43.3862C171.084 45.9597 174.677 47.2165 178.986 47.2813L179.04 43.6888C175.385 43.6338 172.811 42.5852 171.145 40.8773C169.476 39.1668 168.474 36.5449 168.474 32.8503H164.881ZM180.81 45.485V39.7365H177.217V45.485H180.81ZM179.187 37.9486C177.011 37.7363 175.895 37.1011 175.246 36.2513C174.543 35.3301 174.103 33.7948 174.103 31.1737H170.51C170.51 34.0615 170.968 36.5681 172.39 38.4314C173.868 40.366 176.105 41.2577 178.839 41.5244L179.187 37.9486ZM174.103 31.1737V22.3114H170.51V31.1737H174.103ZM172.307 24.1078H178.654V20.515H172.307V24.1078ZM180.45 22.3114V17.3413H176.857V22.3114H180.45ZM178.654 15.5449H172.307V19.1377H178.654V15.5449ZM174.103 17.3413V10.6946H170.51V17.3413H174.103ZM172.307 8.89821H166.678V12.491H172.307V8.89821ZM164.881 10.6946V17.3413H168.474V10.6946H164.881ZM166.678 15.5449H163.804V19.1377H166.678V15.5449ZM162.007 17.3413V22.3114H165.6V17.3413H162.007Z" fill="#ED2590"/>
</svg>
